<svg width="32" height="32" viewBox="0 0 32 32" fill="none" xmlns="http://www.w3.org/2000/svg">
<path fill-rule="evenodd" clip-rule="evenodd" d="M30.8432 16.6487C30.8525 16.4336 30.8571 16.2174 30.8571 16C30.8571 15.7826 30.8525 15.5664 30.8432 15.3513L31.985 15.3023C31.995 15.5336 32 15.7663 32 16C32 16.2337 31.995 16.4664 31.985 16.6977L30.8432 16.6487ZM29.7298 10.3129L30.7855 9.87509C29.7026 7.26377 27.9493 5.00297 25.7411 3.30617L25.0448 4.21234C27.0963 5.78891 28.7247 7.88903 29.7298 10.3129ZM16.6487 1.1568L16.6977 0.0149728C16.4664 0.00502994 16.2337 0 16 0C15.7663 0 15.5336 0.00502994 15.3023 0.0149728L15.3513 1.1568C15.5664 1.14754 15.7826 1.14286 16 1.14286C16.2174 1.14286 16.4336 1.14754 16.6487 1.1568ZM10.3129 2.27017L9.87509 1.21452C7.26377 2.29737 5.00297 4.05074 3.30617 6.25886L4.21234 6.9552C5.78891 4.90366 7.88903 3.27532 10.3129 2.27017ZM1.1568 15.3513C1.14754 15.5664 1.14286 15.7826 1.14286 16C1.14286 16.2174 1.14754 16.4336 1.1568 16.6487L0.0149728 16.6977C0.00502994 16.4664 0 16.2337 0 16C0 15.7663 0.00502994 15.5336 0.0149728 15.3023L1.1568 15.3513ZM2.27017 21.6871L1.21452 22.1249C2.29737 24.7362 4.05074 26.997 6.25886 28.6938L6.9552 27.7877C4.90366 26.2111 3.27532 24.111 2.27017 21.6871ZM15.3513 30.8432L15.3023 31.985C15.5336 31.995 15.7663 32 16 32C16.2337 32 16.4664 31.995 16.6977 31.985L16.6487 30.8432C16.4336 30.8525 16.2174 30.8571 16 30.8571C15.7826 30.8571 15.5664 30.8525 15.3513 30.8432ZM21.6871 29.7298L22.1249 30.7855C24.7362 29.7026 26.997 27.9493 28.6938 25.7411L27.7877 25.0448C26.2111 27.0963 24.111 28.7247 21.6871 29.7298ZM25.1429 16C25.1429 21.0495 21.0495 25.1429 16 25.1429C10.9505 25.1429 6.85714 21.0495 6.85714 16C6.85714 10.9505 10.9505 6.85714 16 6.85714C21.0495 6.85714 25.1429 10.9505 25.1429 16ZM29.7143 16C29.7143 8.42583 23.5742 2.28571 16 2.28571V3.42857C22.943 3.42857 28.5714 9.05703 28.5714 16H29.7143ZM2.28571 16C2.28571 23.5742 8.42583 29.7143 16 29.7143V28.5714C9.05703 28.5714 3.42857 22.943 3.42857 16H2.28571ZM16 26.2857C21.6807 26.2857 26.2857 21.6807 26.2857 16C26.2857 10.3193 21.6807 5.71429 16 5.71429C10.3193 5.71429 5.71429 10.3193 5.71429 16C5.71429 21.6807 10.3193 26.2857 16 26.2857ZM16 27.4286C22.3118 27.4286 27.4286 22.3118 27.4286 16C27.4286 9.68823 22.3118 4.57143 16 4.57143C9.68823 4.57143 4.57143 9.68823 4.57143 16C4.57143 22.3118 9.68823 27.4286 16 27.4286ZM7.6736 5.14286C7.35703 5.38606 7.05154 5.64274 6.75771 5.91211L7.53006 6.75451C7.79954 6.50743 8.07966 6.27211 8.36994 6.04903L7.6736 5.14286ZM5.91211 6.75771C5.64274 7.05154 5.38606 7.35703 5.14286 7.6736L6.04903 8.36994C6.27211 8.07966 6.50743 7.79954 6.75451 7.53006L5.91211 6.75771ZM25.2887 26.1343C24.995 26.4037 24.6894 26.6603 24.3729 26.9035L23.6765 25.9974C23.9667 25.7744 24.247 25.539 24.5163 25.292L25.2887 26.1343ZM26.1344 25.2887C26.4037 24.995 26.6603 24.6894 26.9035 24.3729L25.9974 23.6765C25.7744 23.9667 25.539 24.247 25.292 24.5163L26.1344 25.2887Z" fill="white"/>
</svg>
